<?xml version="1.0" encoding="utf-8"?>
<!-- Generator: Adobe Illustrator 23.0.0, SVG Export Plug-In . SVG Version: 6.00 Build 0)  -->
<svg version="1.1" xmlns="http://www.w3.org/2000/svg" xmlns:xlink="http://www.w3.org/1999/xlink" x="0px" y="0px"
	 viewBox="0 0 1920 1080" style="enable-background:new 0 0 1920 1080;" xml:space="preserve">
<style type="text/css">
	.st0{fill:url(#SVGID_1_);stroke:#666666;stroke-width:8;stroke-miterlimit:10;}
	.st1{fill:none;stroke:#FFFFFF;stroke-width:8;stroke-miterlimit:10;}
</style>
<g id="Layer_2">
	<linearGradient id="SVGID_1_" gradientUnits="userSpaceOnUse" x1="960" y1="-9.094947e-13" x2="960" y2="1080">
		<stop  offset="0" style="stop-color:#FFFFFF"/>
		<stop  offset="1" style="stop-color:#2B2B2B"/>
	</linearGradient>
	<rect x="0" class="st0" width="1920" height="1080"/>
</g>
<g id="Layer_1">
	<path class="st1" d="M41.5,0.5c-39.24,89.19-34.53,151.14-22,192c18.36,59.85,52.32,70.64,55,123c3.72,72.67-59.9,87.35-65,164
		c-5.06,75.94,55.75,86.25,60,171c4.67,93.05-67.23,108.25-60,193c7.73,90.59,94.45,126.97,77,192c-8.08,30.12-33.99,49.51-54,61"/>
	<path class="st1" d="M121.5,0.5c-39.24,89.19-34.53,151.14-22,192c18.36,59.85,52.32,70.64,55,123c3.72,72.67-59.9,87.35-65,164
		c-5.06,75.94,55.75,86.25,60,171c4.67,93.05-67.23,108.25-60,193c7.73,90.59,94.45,126.97,77,192c-8.08,30.12-33.99,49.51-54,61"/>
	<path class="st1" d="M201.5,0.5c-39.24,89.19-34.53,151.14-22,192c18.36,59.85,52.32,70.64,55,123c3.72,72.67-59.9,87.35-65,164
		c-5.06,75.94,55.75,86.25,60,171c4.67,93.05-67.23,108.25-60,193c7.73,90.59,94.45,126.97,77,192c-8.08,30.12-33.99,49.51-54,61"/>
	<path class="st1" d="M281.5,0.5c-39.24,89.19-34.53,151.14-22,192c18.36,59.85,52.32,70.64,55,123c3.72,72.67-59.9,87.35-65,164
		c-5.06,75.94,55.75,86.25,60,171c4.67,93.05-67.23,108.25-60,193c7.73,90.59,94.45,126.97,77,192c-8.08,30.12-33.99,49.51-54,61"/>
	<path class="st1" d="M361.5,0.5c-39.24,89.19-34.53,151.14-22,192c18.36,59.85,52.32,70.64,55,123c3.72,72.67-59.9,87.35-65,164
		c-5.06,75.94,55.75,86.25,60,171c4.67,93.05-67.23,108.25-60,193c7.73,90.59,94.45,126.97,77,192c-8.08,30.12-33.99,49.51-54,61"/>
	<path class="st1" d="M441.5,0.5c-39.24,89.19-34.53,151.14-22,192c18.36,59.85,52.32,70.64,55,123c3.72,72.67-59.9,87.35-65,164
		c-5.06,75.94,55.75,86.25,60,171c4.67,93.05-67.23,108.25-60,193c7.73,90.59,94.45,126.97,77,192c-8.08,30.12-33.99,49.51-54,61"/>
	<path class="st1" d="M521.5,0.5c-39.24,89.19-34.53,151.14-22,192c18.36,59.85,52.32,70.64,55,123c3.72,72.67-59.9,87.35-65,164
		c-5.06,75.94,55.75,86.25,60,171c4.67,93.05-67.23,108.25-60,193c7.73,90.59,94.45,126.97,77,192c-8.08,30.12-33.99,49.51-54,61"/>
	<path class="st1" d="M601.5,0.5c-39.24,89.19-34.53,151.14-22,192c18.36,59.85,52.32,70.64,55,123c3.72,72.67-59.9,87.35-65,164
		c-5.06,75.94,55.75,86.25,60,171c4.67,93.05-67.23,108.25-60,193c7.72,90.59,94.45,126.97,77,192c-8.08,30.12-33.99,49.51-54,61"/>
	<path class="st1" d="M681.5,0.5c-39.24,89.19-34.53,151.14-22,192c18.36,59.85,52.32,70.64,55,123c3.72,72.67-59.9,87.35-65,164
		c-5.06,75.94,55.75,86.25,60,171c4.67,93.05-67.23,108.25-60,193c7.72,90.59,94.45,126.97,77,192c-8.08,30.12-33.99,49.51-54,61"/>
	<path class="st1" d="M761.5,0.5c-39.24,89.19-34.53,151.14-22,192c18.36,59.85,52.32,70.64,55,123c3.72,72.67-59.9,87.35-65,164
		c-5.06,75.94,55.75,86.25,60,171c4.67,93.05-67.23,108.25-60,193c7.72,90.59,94.45,126.97,77,192c-8.08,30.12-33.99,49.51-54,61"/>
	<path class="st1" d="M841.5,0.5c-39.24,89.19-34.53,151.14-22,192c18.36,59.85,52.32,70.64,55,123c3.72,72.67-59.9,87.35-65,164
		c-5.06,75.94,55.75,86.25,60,171c4.67,93.05-67.23,108.25-60,193c7.72,90.59,94.45,126.97,77,192c-8.08,30.12-33.99,49.51-54,61"/>
	<path class="st1" d="M921.5,0.5c-39.24,89.19-34.53,151.14-22,192c18.36,59.85,52.32,70.64,55,123c3.72,72.67-59.9,87.35-65,164
		c-5.06,75.94,55.75,86.25,60,171c4.67,93.05-67.23,108.25-60,193c7.72,90.59,94.45,126.97,77,192c-8.08,30.12-33.99,49.51-54,61"/>
	<path class="st1" d="M1001.5,0.5c-39.24,89.19-34.53,151.14-22,192c18.36,59.85,52.32,70.64,55,123c3.72,72.67-59.9,87.35-65,164
		c-5.06,75.94,55.75,86.25,60,171c4.67,93.05-67.23,108.25-60,193c7.72,90.59,94.45,126.97,77,192c-8.08,30.12-33.99,49.51-54,61"/>
	<path class="st1" d="M1081.5,0.5c-39.24,89.19-34.53,151.14-22,192c18.36,59.85,52.32,70.64,55,123c3.72,72.67-59.9,87.35-65,164
		c-5.06,75.94,55.75,86.25,60,171c4.67,93.05-67.23,108.25-60,193c7.72,90.59,94.45,126.97,77,192c-8.08,30.12-33.99,49.51-54,61"/>
	<path class="st1" d="M1161.5,0.5c-39.24,89.19-34.53,151.14-22,192c18.36,59.85,52.32,70.64,55,123c3.72,72.67-59.9,87.35-65,164
		c-5.06,75.94,55.75,86.25,60,171c4.67,93.05-67.23,108.25-60,193c7.72,90.59,94.45,126.97,77,192c-8.08,30.12-33.99,49.51-54,61"/>
	<path class="st1" d="M1241.5,0.5c-39.24,89.19-34.53,151.14-22,192c18.36,59.85,52.32,70.64,55,123c3.72,72.67-59.9,87.35-65,164
		c-5.06,75.94,55.75,86.25,60,171c4.67,93.05-67.23,108.25-60,193c7.72,90.59,94.45,126.97,77,192c-8.08,30.12-33.99,49.51-54,61"/>
	<path class="st1" d="M1321.5,0.5c-39.24,89.19-34.53,151.14-22,192c18.36,59.85,52.32,70.64,55,123c3.72,72.67-59.9,87.35-65,164
		c-5.06,75.94,55.75,86.25,60,171c4.67,93.05-67.23,108.25-60,193c7.72,90.59,94.45,126.97,77,192c-8.08,30.12-33.99,49.51-54,61"/>
	<path class="st1" d="M1401.5,0.5c-39.24,89.19-34.53,151.14-22,192c18.36,59.85,52.32,70.64,55,123c3.72,72.67-59.9,87.35-65,164
		c-5.06,75.94,55.75,86.25,60,171c4.67,93.05-67.23,108.25-60,193c7.72,90.59,94.45,126.97,77,192c-8.08,30.12-33.99,49.51-54,61"/>
	<path class="st1" d="M1481.5,0.5c-39.24,89.19-34.53,151.14-22,192c18.36,59.85,52.32,70.64,55,123c3.72,72.67-59.9,87.35-65,164
		c-5.06,75.94,55.75,86.25,60,171c4.67,93.05-67.23,108.25-60,193c7.72,90.59,94.45,126.97,77,192c-8.08,30.12-33.99,49.51-54,61"/>
	<path class="st1" d="M1561.5,0.5c-39.24,89.19-34.53,151.14-22,192c18.36,59.85,52.32,70.64,55,123c3.72,72.67-59.9,87.35-65,164
		c-5.06,75.94,55.75,86.25,60,171c4.67,93.05-67.23,108.25-60,193c7.72,90.59,94.45,126.97,77,192c-8.08,30.12-33.99,49.51-54,61"/>
	<path class="st1" d="M1641.5,0.5c-39.24,89.19-34.53,151.14-22,192c18.36,59.85,52.32,70.64,55,123c3.72,72.67-59.9,87.35-65,164
		c-5.06,75.94,55.75,86.25,60,171c4.67,93.05-67.23,108.25-60,193c7.72,90.59,94.45,126.97,77,192c-8.08,30.12-33.99,49.51-54,61"/>
	<path class="st1" d="M1721.5,0.5c-39.24,89.19-34.53,151.14-22,192c18.36,59.85,52.32,70.64,55,123c3.72,72.67-59.9,87.35-65,164
		c-5.06,75.94,55.75,86.25,60,171c4.67,93.05-67.23,108.25-60,193c7.72,90.59,94.45,126.97,77,192c-8.08,30.12-33.99,49.51-54,61"/>
	<path class="st1" d="M1801.5,0.5c-39.24,89.19-34.53,151.14-22,192c18.36,59.85,52.32,70.64,55,123c3.72,72.67-59.9,87.35-65,164
		c-5.06,75.94,55.75,86.25,60,171c4.67,93.05-67.23,108.25-60,193c7.72,90.59,94.45,126.97,77,192c-8.08,30.12-33.99,49.51-54,61"/>
	<path class="st1" d="M1881.5,0.5c-39.24,89.19-34.53,151.14-22,192c18.36,59.85,52.32,70.64,55,123c3.72,72.67-59.9,87.35-65,164
		c-5.06,75.94,55.75,86.25,60,171c4.67,93.05-67.23,108.25-60,193c7.72,90.59,94.45,126.97,77,192c-8.08,30.12-33.99,49.51-54,61"/>
</g>
</svg>
