<svg xmlns="http://www.w3.org/2000/svg" viewBox="0 0 1920 1080"><defs><style>.cls-1{fill:#d1d1d1;stroke:#666;}.cls-1,.cls-2{stroke-miterlimit:10;stroke-width:8px;}.cls-2{fill:none;stroke:#f2f2f2;}</style></defs><title>tomassap_background</title><g id="Layer_2" data-name="Layer 2"><rect class="cls-1" width="1920" height="1080"/></g><g id="Layer_1" data-name="Layer 1"><path class="cls-2" d="M41.5.5C2.26,89.69,7,151.64,19.5,192.5c18.36,59.85,52.32,70.64,55,123,3.72,72.67-59.9,87.35-65,164-5.06,75.94,55.75,86.25,60,171,4.67,93-67.23,108.25-60,193,7.73,90.59,94.45,127,77,192-8.08,30.12-34,49.51-54,61"/><path class="cls-2" d="M121.5.5C82.26,89.69,87,151.64,99.5,192.5c18.36,59.85,52.32,70.64,55,123,3.72,72.67-59.9,87.35-65,164-5.06,75.94,55.75,86.25,60,171,4.67,93-67.23,108.25-60,193,7.73,90.59,94.45,127,77,192-8.08,30.12-34,49.51-54,61"/><path class="cls-2" d="M201.5.5c-39.24,89.19-34.53,151.14-22,192,18.36,59.85,52.32,70.64,55,123,3.72,72.67-59.9,87.35-65,164-5.06,75.94,55.75,86.25,60,171,4.67,93-67.23,108.25-60,193,7.73,90.59,94.45,127,77,192-8.08,30.12-34,49.51-54,61"/><path class="cls-2" d="M281.5.5c-39.24,89.19-34.53,151.14-22,192,18.36,59.85,52.32,70.64,55,123,3.72,72.67-59.9,87.35-65,164-5.06,75.94,55.75,86.25,60,171,4.67,93-67.23,108.25-60,193,7.73,90.59,94.45,127,77,192-8.08,30.12-34,49.51-54,61"/><path class="cls-2" d="M361.5.5c-39.24,89.19-34.53,151.14-22,192,18.36,59.85,52.32,70.64,55,123,3.72,72.67-59.9,87.35-65,164-5.06,75.94,55.75,86.25,60,171,4.67,93-67.23,108.25-60,193,7.73,90.59,94.45,127,77,192-8.08,30.12-34,49.51-54,61"/><path class="cls-2" d="M441.5.5c-39.24,89.19-34.53,151.14-22,192,18.36,59.85,52.32,70.64,55,123,3.72,72.67-59.9,87.35-65,164-5.06,75.94,55.75,86.25,60,171,4.67,93-67.23,108.25-60,193,7.73,90.59,94.45,127,77,192-8.08,30.12-34,49.51-54,61"/><path class="cls-2" d="M521.5.5c-39.24,89.19-34.53,151.14-22,192,18.36,59.85,52.32,70.64,55,123,3.72,72.67-59.9,87.35-65,164-5.06,75.94,55.75,86.25,60,171,4.67,93-67.23,108.25-60,193,7.73,90.59,94.45,127,77,192-8.08,30.12-34,49.51-54,61"/><path class="cls-2" d="M601.5.5c-39.24,89.19-34.53,151.14-22,192,18.36,59.85,52.32,70.64,55,123,3.72,72.67-59.9,87.35-65,164-5.06,75.94,55.75,86.25,60,171,4.67,93-67.23,108.25-60,193,7.73,90.59,94.45,127,77,192-8.08,30.12-34,49.51-54,61"/><path class="cls-2" d="M681.5.5c-39.24,89.19-34.53,151.14-22,192,18.36,59.85,52.32,70.64,55,123,3.72,72.67-59.9,87.35-65,164-5.06,75.94,55.75,86.25,60,171,4.67,93-67.23,108.25-60,193,7.73,90.59,94.45,127,77,192-8.08,30.12-34,49.51-54,61"/><path class="cls-2" d="M761.5.5c-39.24,89.19-34.53,151.14-22,192,18.36,59.85,52.32,70.64,55,123,3.72,72.67-59.9,87.35-65,164-5.06,75.94,55.75,86.25,60,171,4.67,93-67.23,108.25-60,193,7.73,90.59,94.45,127,77,192-8.08,30.12-34,49.51-54,61"/><path class="cls-2" d="M841.5.5c-39.24,89.19-34.53,151.14-22,192,18.36,59.85,52.32,70.64,55,123,3.72,72.67-59.9,87.35-65,164-5.06,75.94,55.75,86.25,60,171,4.67,93-67.23,108.25-60,193,7.73,90.59,94.45,127,77,192-8.08,30.12-34,49.51-54,61"/><path class="cls-2" d="M921.5.5c-39.24,89.19-34.53,151.14-22,192,18.36,59.85,52.32,70.64,55,123,3.72,72.67-59.9,87.35-65,164-5.06,75.94,55.75,86.25,60,171,4.67,93-67.23,108.25-60,193,7.73,90.59,94.45,127,77,192-8.08,30.12-34,49.51-54,61"/><path class="cls-2" d="M1001.5.5c-39.24,89.19-34.53,151.14-22,192,18.36,59.85,52.32,70.64,55,123,3.72,72.67-59.9,87.35-65,164-5.06,75.94,55.75,86.25,60,171,4.67,93-67.23,108.25-60,193,7.73,90.59,94.45,127,77,192-8.08,30.12-34,49.51-54,61"/><path class="cls-2" d="M1081.5.5c-39.24,89.19-34.53,151.14-22,192,18.36,59.85,52.32,70.64,55,123,3.72,72.67-59.9,87.35-65,164-5.06,75.94,55.75,86.25,60,171,4.67,93-67.23,108.25-60,193,7.73,90.59,94.45,127,77,192-8.08,30.12-34,49.51-54,61"/><path class="cls-2" d="M1161.5.5c-39.24,89.19-34.53,151.14-22,192,18.36,59.85,52.32,70.64,55,123,3.72,72.67-59.9,87.35-65,164-5.06,75.94,55.75,86.25,60,171,4.67,93-67.23,108.25-60,193,7.73,90.59,94.45,127,77,192-8.08,30.12-34,49.51-54,61"/><path class="cls-2" d="M1241.5.5c-39.24,89.19-34.53,151.14-22,192,18.36,59.85,52.32,70.64,55,123,3.72,72.67-59.9,87.35-65,164-5.06,75.94,55.75,86.25,60,171,4.67,93-67.23,108.25-60,193,7.73,90.59,94.45,127,77,192-8.08,30.12-34,49.51-54,61"/><path class="cls-2" d="M1321.5.5c-39.24,89.19-34.53,151.14-22,192,18.36,59.85,52.32,70.64,55,123,3.72,72.67-59.9,87.35-65,164-5.06,75.94,55.75,86.25,60,171,4.67,93-67.23,108.25-60,193,7.73,90.59,94.45,127,77,192-8.08,30.12-34,49.51-54,61"/><path class="cls-2" d="M1401.5.5c-39.24,89.19-34.53,151.14-22,192,18.36,59.85,52.32,70.64,55,123,3.72,72.67-59.9,87.35-65,164-5.06,75.94,55.75,86.25,60,171,4.67,93-67.23,108.25-60,193,7.73,90.59,94.45,127,77,192-8.08,30.12-34,49.51-54,61"/><path class="cls-2" d="M1481.5.5c-39.24,89.19-34.53,151.14-22,192,18.36,59.85,52.32,70.64,55,123,3.72,72.67-59.9,87.35-65,164-5.06,75.94,55.75,86.25,60,171,4.67,93-67.23,108.25-60,193,7.73,90.59,94.45,127,77,192-8.08,30.12-34,49.51-54,61"/><path class="cls-2" d="M1561.5.5c-39.24,89.19-34.53,151.14-22,192,18.36,59.85,52.32,70.64,55,123,3.72,72.67-59.9,87.35-65,164-5.06,75.94,55.75,86.25,60,171,4.67,93-67.23,108.25-60,193,7.73,90.59,94.45,127,77,192-8.08,30.12-34,49.51-54,61"/><path class="cls-2" d="M1641.5.5c-39.24,89.19-34.53,151.14-22,192,18.36,59.85,52.32,70.64,55,123,3.72,72.67-59.9,87.35-65,164-5.06,75.94,55.75,86.25,60,171,4.67,93-67.23,108.25-60,193,7.73,90.59,94.45,127,77,192-8.08,30.12-34,49.51-54,61"/><path class="cls-2" d="M1721.5.5c-39.24,89.19-34.53,151.14-22,192,18.36,59.85,52.32,70.64,55,123,3.72,72.67-59.9,87.35-65,164-5.06,75.94,55.75,86.25,60,171,4.67,93-67.23,108.25-60,193,7.73,90.59,94.45,127,77,192-8.08,30.12-34,49.51-54,61"/><path class="cls-2" d="M1801.5.5c-39.24,89.19-34.53,151.14-22,192,18.36,59.85,52.32,70.64,55,123,3.72,72.67-59.9,87.35-65,164-5.06,75.94,55.75,86.25,60,171,4.67,93-67.23,108.25-60,193,7.73,90.59,94.45,127,77,192-8.08,30.12-34,49.51-54,61"/><path class="cls-2" d="M1881.5.5c-39.24,89.19-34.53,151.14-22,192,18.36,59.85,52.32,70.64,55,123,3.72,72.67-59.9,87.35-65,164-5.06,75.94,55.75,86.25,60,171,4.67,93-67.23,108.25-60,193,7.73,90.59,94.45,127,77,192-8.08,30.12-34,49.51-54,61"/></g></svg>